<svg width="72" height="70" viewBox="0 0 72 70" fill="none" xmlns="http://www.w3.org/2000/svg">
<path d="M35.1914 28.5184L52.0269 8.91762L40.8032 0.522949L35.1914 7.52514V28.5184Z" fill="#007AFF"/>
<path d="M35.189 28.5184L18.3535 8.91762L29.5772 0.522949L35.189 7.52514V28.5184Z" fill="#FEAB23"/>
<path d="M35.189 41.7793L18.3535 61.3669L29.5772 69.7748L35.189 62.7726V41.7793Z" fill="#007AFF"/>
<path d="M35.1914 41.7793L52.0269 61.3669L40.8032 69.7748L35.1914 62.7726V41.7793Z" fill="#FEAB23"/>
<path d="M43.209 35.1487L62.944 51.8584L71.4152 40.7186L64.3603 35.1487H43.209Z" fill="#007AFF"/>
<path d="M43.209 35.1485L62.944 18.4387L71.4152 29.5786L64.3603 35.1485H43.209Z" fill="#FEAB23"/>
<path d="M28.507 35.1485L8.75863 18.4387L0.300781 29.5786L7.35567 35.1485H28.507Z" fill="#007AFF"/>
<path d="M28.507 35.1487L8.75863 51.8584L0.300781 40.7186L7.35567 35.1487H28.507Z" fill="#FEAB23"/>
<path d="M35.1901 39.1282C32.9854 39.1282 31.1816 37.3378 31.1816 35.1497C31.1816 32.9615 32.9854 31.1711 35.1901 31.1711C37.3948 31.1711 39.1986 32.9615 39.1986 35.1497C39.1986 37.3378 37.3948 39.1282 35.1901 39.1282Z" fill="#FF00FF"/>
<path d="M35.1886 33.8225C35.9235 33.8225 36.5247 34.4193 36.5247 35.1487C36.5247 35.8781 35.9235 36.4749 35.1886 36.4749C34.4537 36.4749 33.8524 35.8781 33.8524 35.1487C33.8524 34.4193 34.4537 33.8225 35.1886 33.8225ZM35.1886 28.5178C31.5008 28.5178 28.5078 31.4884 28.5078 35.1487C28.5078 38.8089 31.5008 41.7795 35.1886 41.7795C38.8764 41.7795 41.8693 38.8089 41.8693 35.1487C41.8693 31.4884 38.8764 28.5178 35.1886 28.5178Z" fill="#FF00FF"/>
</svg>
