<svg width="67" height="68" viewBox="0 0 67 68" fill="none" xmlns="http://www.w3.org/2000/svg">
<path d="M41.9301 22.5786L21.291 27.9062L26.2114 46.6841L46.8505 41.3565L41.9301 22.5786Z" fill="#FF00FF"/>
<path d="M0.625 64.9543L31.3164 67.4237L28.082 50.4023L17.4724 49.9084L0.625 64.9543Z" fill="#007AFF"/>
<path d="M0.625 64.9547L1.3714 34.3867L18.0944 39.3785L17.4724 49.9088L0.625 64.9547Z" fill="#FEAB23"/>
<path d="M66.8574 64.9541L36.166 67.4235L39.4182 50.4021L50.0278 49.9082L66.8574 64.9541Z" fill="#007AFF"/>
<path d="M66.8559 64.9544L66.1273 34.3865L49.4043 39.3782L50.0263 49.9086L66.8559 64.9544Z" fill="#FEAB23"/>
<path d="M0.625 3.3432L31.3164 0.873779L28.082 17.9128L17.4724 18.389L0.625 3.3432Z" fill="#007AFF"/>
<path d="M0.625 3.34277L1.3714 33.9107L18.0944 28.9189L17.4724 18.3886L0.625 3.34277Z" fill="#FEAB23"/>
<path d="M66.8613 3.3432L36.1699 0.873779L39.4221 17.9128L50.0317 18.389L66.8613 3.3432Z" fill="#007AFF"/>
<path d="M66.8598 3.34277L66.1312 33.9107L49.4082 28.9189L50.0302 18.3886L66.8598 3.34277Z" fill="#FEAB23"/>
</svg>
