<svg width="55" height="78" viewBox="0 0 55 78" fill="none" xmlns="http://www.w3.org/2000/svg">
<path d="M7.53281 16.3848L23.1356 40.8664L15.8384 41.4411L0.25 16.9595L7.53281 16.3848Z" fill="#FF00FF"/>
<path d="M37.533 16.1893L49.3344 12.0625L48.4991 25.9813L27.5275 33.2926L37.533 16.1893Z" fill="#007AFF"/>
<path d="M37.5482 16.197L35.3115 3.94217L23.5596 11.5402L27.543 33.3005L37.5482 16.197Z" fill="#FEAB23"/>
<path d="M47.5121 61.9131L31.9093 37.4315L39.2065 36.8568L54.7949 61.3384L47.5121 61.9131Z" fill="#FF00FF"/>
<path d="M17.5119 62.1088L5.71054 66.2356L6.54578 52.3168L27.5174 45.0055L17.5119 62.1088Z" fill="#007AFF"/>
<path d="M17.4945 62.1009L19.7311 74.3555L31.4832 66.7575L27.5 44.9976L17.4945 62.1009Z" fill="#FEAB23"/>
</svg>
