<svg width="72" height="70" viewBox="0 0 72 70" fill="none" xmlns="http://www.w3.org/2000/svg">
<path d="M35.1738 28.5184L52.0094 8.91762L40.7857 0.522949L35.1738 7.52514V28.5184Z" fill="#007AFF"/>
<path d="M35.1715 28.5184L18.3359 8.91762L29.5596 0.522949L35.1715 7.52514V28.5184Z" fill="#FEAB23"/>
<path d="M35.1715 41.7793L18.3359 61.3669L29.5596 69.7748L35.1715 62.7726V41.7793Z" fill="#007AFF"/>
<path d="M35.1738 41.7793L52.0094 61.3669L40.7857 69.7748L35.1738 62.7726V41.7793Z" fill="#FEAB23"/>
<path d="M43.1914 35.1487L62.9264 51.8584L71.3976 40.7186L64.3427 35.1487H43.1914Z" fill="#007AFF"/>
<path d="M43.1914 35.1485L62.9264 18.4387L71.3976 29.5786L64.3427 35.1485H43.1914Z" fill="#FEAB23"/>
<path d="M28.4894 35.1485L8.74105 18.4387L0.283203 29.5786L7.33809 35.1485H28.4894Z" fill="#007AFF"/>
<path d="M28.4894 35.1487L8.74105 51.8584L0.283203 40.7186L7.33809 35.1487H28.4894Z" fill="#FEAB23"/>
<path d="M35.1725 39.1282C32.9679 39.1282 31.1641 37.3378 31.1641 35.1497C31.1641 32.9615 32.9679 31.1711 35.1725 31.1711C37.3772 31.1711 39.181 32.9615 39.181 35.1497C39.181 37.3378 37.3772 39.1282 35.1725 39.1282Z" fill="#FF00FF"/>
<path d="M35.171 33.8225C35.9059 33.8225 36.5072 34.4193 36.5072 35.1487C36.5072 35.8781 35.9059 36.4749 35.171 36.4749C34.4361 36.4749 33.8348 35.8781 33.8348 35.1487C33.8348 34.4193 34.4361 33.8225 35.171 33.8225ZM35.171 28.5178C31.4832 28.5178 28.4902 31.4884 28.4902 35.1487C28.4902 38.8089 31.4832 41.7795 35.171 41.7795C38.8588 41.7795 41.8518 38.8089 41.8518 35.1487C41.8518 31.4884 38.8588 28.5178 35.171 28.5178Z" fill="#FF00FF"/>
</svg>
