<svg width="65" height="65" viewBox="0 0 65 65" fill="none" xmlns="http://www.w3.org/2000/svg">
<path d="M40.3828 24.6099L40.4011 40.296L58.3638 31.5675L64.3514 0.88208L40.3828 24.6099Z" fill="#FEAB23"/>
<path d="M40.3807 24.628L24.334 24.4111L33.1697 6.62881L64.3503 0.88208L40.3807 24.628Z" fill="#007AFF"/>
<path d="M23.9686 24.6099L23.9503 40.296L5.98758 31.5675L0 0.88208L23.9686 24.6099Z" fill="#007AFF"/>
<path d="M23.9696 24.628L40.0163 24.4111L31.1806 6.62881L0 0.88208L23.9696 24.628Z" fill="#FEAB23"/>
<path d="M23.9686 40.4573L23.9503 24.7712L5.98758 33.4998L0 64.1851L23.9686 40.4573Z" fill="#FEAB23"/>
<path d="M23.9696 40.4392L40.0163 40.6561L31.1806 58.4384L0 64.1851L23.9696 40.4392Z" fill="#007AFF"/>
<path d="M40.3828 40.4573L40.4011 24.7712L58.3638 33.4998L64.3514 64.1851L40.3828 40.4573Z" fill="#007AFF"/>
<path d="M40.3787 40.4392L24.332 40.6561L33.1678 58.4384L64.3484 64.1851L40.3787 40.4392Z" fill="#FEAB23"/>
<path d="M52.3918 32.1443H32.1289V51.4988H52.3918V32.1443Z" fill="#FF00FF"/>
</svg>
