<svg width="65" height="64" viewBox="0 0 65 64" fill="none" xmlns="http://www.w3.org/2000/svg">
<path d="M40.7324 24.2252L40.7507 39.9112L58.7134 31.1827L64.701 0.497314L40.7324 24.2252Z" fill="#FEAB23"/>
<path d="M40.7303 24.2432L24.6836 24.0264L33.5193 6.24405L64.6999 0.497314L40.7303 24.2432Z" fill="#007AFF"/>
<path d="M24.3182 24.2252L24.2999 39.9112L6.33719 31.1827L0.349609 0.497314L24.3182 24.2252Z" fill="#007AFF"/>
<path d="M24.3193 24.2432L40.366 24.0264L31.5302 6.24405L0.349609 0.497314L24.3193 24.2432Z" fill="#FEAB23"/>
<path d="M24.3182 40.0725L24.2999 24.3865L6.33719 33.115L0.349609 63.8004L24.3182 40.0725Z" fill="#FEAB23"/>
<path d="M24.3193 40.0544L40.366 40.2713L31.5302 58.0536L0.349609 63.8004L24.3193 40.0544Z" fill="#007AFF"/>
<path d="M40.7324 40.0725L40.7507 24.3865L58.7134 33.115L64.701 63.8004L40.7324 40.0725Z" fill="#007AFF"/>
<path d="M40.7283 40.0544L24.6816 40.2713L33.5174 58.0536L64.698 63.8004L40.7283 40.0544Z" fill="#FEAB23"/>
<path d="M52.7414 31.7595H32.4785V51.1141H52.7414V31.7595Z" fill="#FF00FF"/>
</svg>
