<svg width="97" height="64" viewBox="0 0 97 64" fill="none" xmlns="http://www.w3.org/2000/svg">
<path d="M50.7227 36.5544L28.7539 51.8034L57.6496 63.6437L96.6939 36.5544H50.7227Z" fill="#007AFF"/>
<path d="M50.7227 36.574L28.7539 21.3052L57.6496 9.46484L96.6939 36.574H50.7227Z" fill="#FEAB23"/>
<path d="M12.868 36.5544L0.101562 45.4048L16.8751 52.2817L39.5487 36.5544H12.868Z" fill="#007AFF"/>
<path d="M12.868 36.553L0.101562 27.7026L16.8751 20.8257L39.5487 36.553H12.868Z" fill="#FEAB23"/>
<path d="M94.821 16.8396C94.821 25.7697 87.5119 33.0253 78.4711 33.0253C69.4504 33.0253 62.1211 25.7896 62.1211 16.8396C62.1211 7.9095 69.4303 0.653809 78.4711 0.653809C87.5119 0.673742 94.821 7.9095 94.821 16.8396Z" fill="#FF00FF"/>
</svg>
