<svg width="95" height="51" viewBox="0 0 95 51" fill="none" xmlns="http://www.w3.org/2000/svg">
<path d="M56.3138 25.8007C56.3138 30.5165 52.4523 34.3213 47.7067 34.3213C42.943 34.3213 39.0996 30.4986 39.0996 25.8007C39.0996 21.1027 42.9611 17.28 47.7067 17.28C52.4704 17.28 56.3138 21.0848 56.3138 25.8007Z" fill="#FF00FF"/>
<path d="M65.2514 24.1567L51.2305 37.7505L69.6724 48.2896L94.5926 24.1567H65.2514Z" fill="#007AFF"/>
<path d="M65.2514 24.1751L51.2305 10.5993L69.6724 0.0422363L94.5926 24.1751H65.2514Z" fill="#FEAB23"/>
<path d="M67.9753 18.9948C62.4536 13.9395 55.2717 11.1529 47.7108 11.1529C40.1499 11.1529 32.95 13.9395 27.4462 18.9948L22.0508 13.225C29.0342 6.83008 38.1469 3.29321 47.7108 3.29321C57.2747 3.29321 66.3874 6.81222 73.3708 13.225L67.9753 18.9948Z" fill="#FF00FF"/>
<path d="M30.1161 26.1392L44.1551 12.5455L25.7131 2.00635L0.792969 26.1392H30.1161Z" fill="#007AFF"/>
<path d="M30.1161 26.1226L44.1551 39.6984L25.7131 50.2554L0.792969 26.1226H30.1161Z" fill="#FEAB23"/>
<path d="M47.7108 47.004C38.1469 47.004 29.0342 43.485 22.0508 37.0722L27.4462 31.3025C32.95 36.3577 40.1499 39.1443 47.7108 39.1443C55.2717 39.1443 62.4716 36.3577 67.9753 31.3025L73.3708 37.0722C66.3874 43.4672 57.2747 47.004 47.7108 47.004Z" fill="#FF00FF"/>
</svg>
