<svg width="81" height="80" viewBox="0 0 81 80" fill="none" xmlns="http://www.w3.org/2000/svg">
<path d="M40.6907 79.5441V52.9609L31.7094 44.2505L24.7178 56.9547L40.6907 79.5441Z" fill="#FEAB23"/>
<path d="M40.6924 79.5441V52.9609L49.6738 44.2505L56.6653 56.9547L40.6924 79.5441Z" fill="#007AFF"/>
<path d="M40.6907 27.3185L31.7094 36.047L24.7178 23.3247L40.6907 0.753418V27.3185Z" fill="#FF00FF"/>
<path d="M40.6924 27.3185L49.6738 36.047L56.6653 23.3247L40.6924 0.753418V27.3185Z" fill="#FEAB23"/>
<path d="M27.7496 40.149L36.5488 31.2397L23.7151 24.3364L0.895508 40.149H27.7496Z" fill="#FEAB23"/>
<path d="M27.7496 40.1313L36.5488 49.0406L23.7151 55.962L0.895508 40.1313H27.7496Z" fill="#007AFF"/>
<path d="M53.6361 40.149L44.8369 31.2397L57.6707 24.3364L80.4902 40.149H53.6361Z" fill="#007AFF"/>
<path d="M53.6361 40.1313L44.8369 49.0406L57.6707 55.962L80.4902 40.1313H53.6361Z" fill="#FEAB23"/>
</svg>
