<svg width="67" height="68" viewBox="0 0 67 68" fill="none" xmlns="http://www.w3.org/2000/svg">
<path d="M41.8266 22.5786L21.1875 27.9062L26.1079 46.6841L46.747 41.3565L41.8266 22.5786Z" fill="#FF00FF"/>
<path d="M0.521484 64.9543L31.2129 67.4237L27.9784 50.4023L17.3689 49.9084L0.521484 64.9543Z" fill="#007AFF"/>
<path d="M0.521484 64.9547L1.26789 34.3867L17.9909 39.3785L17.3689 49.9088L0.521484 64.9547Z" fill="#FEAB23"/>
<path d="M66.7539 64.9541L36.0625 67.4235L39.3147 50.4021L49.9243 49.9082L66.7539 64.9541Z" fill="#007AFF"/>
<path d="M66.7524 64.9544L66.0238 34.3865L49.3008 39.3782L49.9228 49.9086L66.7524 64.9544Z" fill="#FEAB23"/>
<path d="M0.521484 3.3432L31.2129 0.873779L27.9784 17.9128L17.3689 18.389L0.521484 3.3432Z" fill="#007AFF"/>
<path d="M0.521484 3.34277L1.26789 33.9107L17.9909 28.9189L17.3689 18.3886L0.521484 3.34277Z" fill="#FEAB23"/>
<path d="M66.7578 3.3432L36.0664 0.873779L39.3186 17.9128L49.9282 18.389L66.7578 3.3432Z" fill="#007AFF"/>
<path d="M66.7563 3.34277L66.0277 33.9107L49.3047 28.9189L49.9267 18.3886L66.7563 3.34277Z" fill="#FEAB23"/>
</svg>
